<mxfile host="app.diagrams.net" modified="2024-04-11T15:47:52.816Z" agent="Mozilla/5.0 (Windows NT 10.0; Win64; x64) AppleWebKit/537.36 (KHTML, like Gecko) Chrome/123.0.0.0 Safari/537.36" etag="qsKj24QGBh4zhwxoVVuW" version="24.2.3" type="github">
  <diagram id="3228e29e-7158-1315-38df-8450db1d8a1d" name="Page-1">
    <mxGraphModel dx="2603" dy="738" grid="1" gridSize="10" guides="1" tooltips="1" connect="1" arrows="1" fold="1" page="1" pageScale="1" pageWidth="1169" pageHeight="827" background="none" math="0" shadow="0">
      <root>
        <mxCell id="0" />
        <mxCell id="1" parent="0" />
        <mxCell id="21532" value="" style="ellipse;fillColor=#12AAB5;opacity=60;strokeColor=none;html=1;fontColor=#FFFFFF;" parent="1" vertex="1">
          <mxGeometry x="-115" y="80" width="440" height="440" as="geometry" />
        </mxCell>
        <mxCell id="21534" value="&lt;b&gt;学习投入&lt;/b&gt;" style="text;fontSize=24;align=center;verticalAlign=middle;html=1;fontColor=#FFFFFF;" parent="1" vertex="1">
          <mxGeometry x="10" y="138.5" width="190" height="70" as="geometry" />
        </mxCell>
        <mxCell id="UAgsfBdRlfncTMGVdesW-21540" style="edgeStyle=orthogonalEdgeStyle;rounded=0;orthogonalLoop=1;jettySize=auto;html=1;exitX=0.5;exitY=1;exitDx=0;exitDy=0;" edge="1" parent="1" source="21534" target="21534">
          <mxGeometry relative="1" as="geometry" />
        </mxCell>
        <mxCell id="UAgsfBdRlfncTMGVdesW-21541" value="&lt;font style=&quot;font-size: 24px;&quot;&gt;&lt;b&gt;认知投入&lt;/b&gt;&lt;/font&gt;" style="ellipse;whiteSpace=wrap;html=1;fillColor=#d5e8d4;strokeColor=#82b366;" vertex="1" parent="1">
          <mxGeometry x="-60" y="250" width="120" height="80" as="geometry" />
        </mxCell>
        <mxCell id="UAgsfBdRlfncTMGVdesW-21542" value="&lt;font style=&quot;font-size: 24px;&quot;&gt;&lt;b&gt;行为投入&lt;/b&gt;&lt;/font&gt;" style="ellipse;whiteSpace=wrap;html=1;fillColor=#d5e8d4;strokeColor=#82b366;" vertex="1" parent="1">
          <mxGeometry x="140" y="248.5" width="120" height="80" as="geometry" />
        </mxCell>
        <mxCell id="UAgsfBdRlfncTMGVdesW-21543" value="&lt;font style=&quot;font-size: 24px;&quot;&gt;&lt;b&gt;情感投入&lt;/b&gt;&lt;/font&gt;" style="ellipse;whiteSpace=wrap;html=1;fillColor=#d5e8d4;strokeColor=#82b366;" vertex="1" parent="1">
          <mxGeometry x="45" y="354" width="120" height="80" as="geometry" />
        </mxCell>
        <mxCell id="UAgsfBdRlfncTMGVdesW-21544" value="" style="ellipse;fillColor=#E6D0DE;opacity=60;strokeColor=#E6D0DE;html=1;fontColor=#000000;" vertex="1" parent="1">
          <mxGeometry x="420" y="70" width="440" height="440" as="geometry" />
        </mxCell>
        <mxCell id="UAgsfBdRlfncTMGVdesW-21545" value="&lt;b&gt;学习投入&lt;/b&gt;" style="text;fontSize=24;align=center;verticalAlign=middle;html=1;fontColor=default;labelBackgroundColor=none;" vertex="1" parent="1">
          <mxGeometry x="545" y="128.5" width="190" height="70" as="geometry" />
        </mxCell>
        <mxCell id="UAgsfBdRlfncTMGVdesW-21546" style="edgeStyle=orthogonalEdgeStyle;rounded=0;orthogonalLoop=1;jettySize=auto;html=1;exitX=0.5;exitY=1;exitDx=0;exitDy=0;" edge="1" parent="1" source="UAgsfBdRlfncTMGVdesW-21545" target="UAgsfBdRlfncTMGVdesW-21545">
          <mxGeometry relative="1" as="geometry" />
        </mxCell>
        <mxCell id="UAgsfBdRlfncTMGVdesW-21547" value="&lt;font style=&quot;font-size: 24px;&quot;&gt;&lt;b&gt;认知投入&lt;/b&gt;&lt;/font&gt;" style="ellipse;whiteSpace=wrap;html=1;fillColor=#F8CECC;strokeColor=#FFFFFF;" vertex="1" parent="1">
          <mxGeometry x="475" y="240" width="120" height="80" as="geometry" />
        </mxCell>
        <mxCell id="UAgsfBdRlfncTMGVdesW-21548" value="&lt;font style=&quot;font-size: 24px;&quot;&gt;&lt;b&gt;行为投入&lt;/b&gt;&lt;/font&gt;" style="ellipse;whiteSpace=wrap;html=1;fillColor=#F8CECC;strokeColor=#FFFFFF;" vertex="1" parent="1">
          <mxGeometry x="675" y="238.5" width="120" height="80" as="geometry" />
        </mxCell>
        <mxCell id="UAgsfBdRlfncTMGVdesW-21549" value="&lt;font style=&quot;font-size: 24px;&quot;&gt;&lt;b&gt;情感投入&lt;/b&gt;&lt;/font&gt;" style="ellipse;whiteSpace=wrap;html=1;fillColor=#F8CECC;strokeColor=#FFFFFF;" vertex="1" parent="1">
          <mxGeometry x="475" y="340" width="120" height="80" as="geometry" />
        </mxCell>
        <mxCell id="UAgsfBdRlfncTMGVdesW-21550" value="&lt;font style=&quot;font-size: 24px;&quot;&gt;&lt;b&gt;社交投入&lt;/b&gt;&lt;/font&gt;" style="ellipse;whiteSpace=wrap;html=1;fillColor=#F8CECC;strokeColor=#FFFFFF;" vertex="1" parent="1">
          <mxGeometry x="675" y="334" width="120" height="80" as="geometry" />
        </mxCell>
      </root>
    </mxGraphModel>
  </diagram>
</mxfile>
